<svg width="91" height="52" viewBox="0 0 91 52" fill="none" xmlns="http://www.w3.org/2000/svg">
<path d="M13.19 6.93856C13.1019 6.05054 12.724 5.36068 12.0561 4.86896C11.3883 4.37725 10.4819 4.13139 9.337 4.13139C8.55907 4.13139 7.90223 4.24148 7.36648 4.46165C6.83073 4.67448 6.41974 4.97171 6.13352 5.35334C5.85464 5.73497 5.7152 6.16797 5.7152 6.65234C5.70052 7.05599 5.78492 7.40826 5.9684 7.70916C6.15921 8.01006 6.41974 8.2706 6.75 8.49077C7.08026 8.7036 7.46188 8.89074 7.89489 9.0522C8.32789 9.20632 8.79025 9.33842 9.28196 9.44851L11.3075 9.93288C12.291 10.1531 13.1937 10.4466 14.0156 10.8136C14.8376 11.1805 15.5495 11.6319 16.1513 12.1676C16.7531 12.7034 17.2191 13.3345 17.5494 14.0611C17.887 14.7876 18.0594 15.6206 18.0668 16.56C18.0594 17.9397 17.7072 19.136 17.0099 20.1488C16.3201 21.1542 15.322 21.9358 14.0156 22.4936C12.7166 23.044 11.1497 23.3192 9.31499 23.3192C7.49491 23.3192 5.90968 23.0404 4.5593 22.4826C3.21626 21.9248 2.16679 21.0992 1.41087 20.0057C0.662287 18.9048 0.26965 17.5434 0.232955 15.9215H4.84553C4.8969 16.6774 5.1134 17.3086 5.49503 17.815C5.884 18.314 6.4014 18.692 7.04723 18.9489C7.7004 19.1984 8.43797 19.3232 9.25994 19.3232C10.0672 19.3232 10.7681 19.2057 11.3626 18.9709C11.9644 18.736 12.4304 18.4094 12.7607 17.9911C13.0909 17.5728 13.256 17.0921 13.256 16.549C13.256 16.0426 13.1056 15.617 12.8047 15.272C12.5111 14.9271 12.0781 14.6335 11.5057 14.3913C10.9406 14.1491 10.247 13.929 9.42507 13.7308L6.97017 13.1143C5.06937 12.652 3.56854 11.9291 2.46768 10.9457C1.36683 9.96224 0.820076 8.63755 0.827415 6.97159C0.820076 5.60653 1.18336 4.41394 1.91726 3.39382C2.6585 2.3737 3.67495 1.57741 4.96662 1.00497C6.25829 0.432528 7.72609 0.146306 9.37003 0.146306C11.0433 0.146306 12.5038 0.432528 13.7514 1.00497C15.0064 1.57741 15.9825 2.3737 16.6797 3.39382C17.3769 4.41394 17.7365 5.59552 17.7585 6.93856H13.19ZM28.8909 23.3303C27.1515 23.3303 25.6544 22.978 24.3994 22.2734C23.1518 21.5616 22.1904 20.5561 21.5152 19.2571C20.84 17.9508 20.5024 16.4059 20.5024 14.6225C20.5024 12.8832 20.84 11.3567 21.5152 10.043C22.1904 8.72928 23.1408 7.70549 24.3664 6.97159C25.5993 6.23769 27.0451 5.87074 28.7037 5.87074C29.8193 5.87074 30.8577 6.05054 31.8192 6.41016C32.7879 6.76243 33.6319 7.29451 34.3511 8.00639C35.0777 8.71828 35.6428 9.61364 36.0464 10.6925C36.4501 11.764 36.6519 13.0189 36.6519 14.4574V15.7454H22.3738V12.8391H32.2375C32.2375 12.1639 32.0907 11.5658 31.7971 11.0447C31.5036 10.5237 31.0963 10.1164 30.5752 9.8228C30.0615 9.5219 29.4633 9.37145 28.7808 9.37145C28.0689 9.37145 27.4378 9.53658 26.8873 9.86683C26.3443 10.1897 25.9186 10.6264 25.6104 11.1768C25.3021 11.7199 25.1443 12.3254 25.137 12.9933V15.7564C25.137 16.593 25.2911 17.3159 25.5993 17.9251C25.9149 18.5342 26.3589 19.0039 26.9314 19.3342C27.5038 19.6644 28.1827 19.8295 28.968 19.8295C29.489 19.8295 29.9661 19.7562 30.3991 19.6094C30.8321 19.4626 31.2027 19.2424 31.5109 18.9489C31.8192 18.6553 32.054 18.2957 32.2155 17.87L36.5528 18.1562C36.3327 19.1984 35.8813 20.1084 35.1988 20.8864C34.5236 21.657 33.6502 22.2588 32.5787 22.6918C31.5146 23.1174 30.2853 23.3303 28.8909 23.3303ZM40.5599 23L49.9062 4.50568V4.35156H39.0187V0.454545H54.838V4.4066L45.4807 23H40.5599ZM64.2805 23.3303C62.5412 23.3303 61.044 22.978 59.7891 22.2734C58.5414 21.5616 57.58 20.5561 56.9048 19.2571C56.2296 17.9508 55.892 16.4059 55.892 14.6225C55.892 12.8832 56.2296 11.3567 56.9048 10.043C57.58 8.72928 58.5304 7.70549 59.756 6.97159C60.989 6.23769 62.4348 5.87074 64.0934 5.87074C65.2089 5.87074 66.2474 6.05054 67.2088 6.41016C68.1776 6.76243 69.0215 7.29451 69.7408 8.00639C70.4673 8.71828 71.0324 9.61364 71.4361 10.6925C71.8397 11.764 72.0415 13.0189 72.0415 14.4574V15.7454H57.7635V12.8391H67.6271C67.6271 12.1639 67.4804 11.5658 67.1868 11.0447C66.8932 10.5237 66.4859 10.1164 65.9648 9.8228C65.4511 9.5219 64.853 9.37145 64.1705 9.37145C63.4586 9.37145 62.8274 9.53658 62.277 9.86683C61.7339 10.1897 61.3082 10.6264 61 11.1768C60.6918 11.7199 60.534 12.3254 60.5266 12.9933V15.7564C60.5266 16.593 60.6808 17.3159 60.989 17.9251C61.3046 18.5342 61.7486 19.0039 62.321 19.3342C62.8935 19.6644 63.5723 19.8295 64.3576 19.8295C64.8787 19.8295 65.3557 19.7562 65.7887 19.6094C66.2217 19.4626 66.5923 19.2424 66.9006 18.9489C67.2088 18.6553 67.4437 18.2957 67.6051 17.87L71.9425 18.1562C71.7223 19.1984 71.271 20.1084 70.5884 20.8864C69.9132 21.657 69.0399 22.2588 67.9684 22.6918C66.9042 23.1174 65.675 23.3303 64.2805 23.3303ZM79.7915 13.2244V23H75.1019V6.09091H79.5714V9.07422H79.7695C80.1438 8.09079 80.7713 7.31285 81.652 6.74041C82.5327 6.16063 83.6005 5.87074 84.8555 5.87074C86.0297 5.87074 87.0535 6.1276 87.9268 6.64133C88.8002 7.15507 89.479 7.88897 89.9634 8.84304C90.4478 9.78977 90.69 10.92 90.69 12.2337V23H86.0004V13.0703C86.0077 12.0355 85.7435 11.2282 85.2077 10.6484C84.672 10.0613 83.9344 9.76776 82.995 9.76776C82.3639 9.76776 81.8061 9.90353 81.3217 10.1751C80.8447 10.4466 80.4704 10.8429 80.1989 11.364C79.9347 11.8777 79.7989 12.4979 79.7915 13.2244ZM13.19 34.9386C13.1019 34.0505 12.724 33.3607 12.0561 32.869C11.3883 32.3772 10.4819 32.1314 9.337 32.1314C8.55907 32.1314 7.90223 32.2415 7.36648 32.4616C6.83073 32.6745 6.41974 32.9717 6.13352 33.3533C5.85464 33.735 5.7152 34.168 5.7152 34.6523C5.70052 35.056 5.78492 35.4083 5.9684 35.7092C6.15921 36.0101 6.41974 36.2706 6.75 36.4908C7.08026 36.7036 7.46188 36.8907 7.89489 37.0522C8.32789 37.2063 8.79025 37.3384 9.28196 37.4485L11.3075 37.9329C12.291 38.1531 13.1937 38.4466 14.0156 38.8136C14.8376 39.1805 15.5495 39.6319 16.1513 40.1676C16.7531 40.7034 17.2191 41.3345 17.5494 42.0611C17.887 42.7876 18.0594 43.6206 18.0668 44.56C18.0594 45.9397 17.7072 47.136 17.0099 48.1488C16.3201 49.1542 15.322 49.9358 14.0156 50.4936C12.7166 51.044 11.1497 51.3192 9.31499 51.3192C7.49491 51.3192 5.90968 51.0404 4.5593 50.4826C3.21626 49.9248 2.16679 49.0992 1.41087 48.0057C0.662287 46.9048 0.26965 45.5434 0.232955 43.9215H4.84553C4.8969 44.6774 5.1134 45.3086 5.49503 45.815C5.884 46.314 6.4014 46.692 7.04723 46.9489C7.7004 47.1984 8.43797 47.3232 9.25994 47.3232C10.0672 47.3232 10.7681 47.2057 11.3626 46.9709C11.9644 46.736 12.4304 46.4094 12.7607 45.9911C13.0909 45.5728 13.256 45.0921 13.256 44.549C13.256 44.0426 13.1056 43.617 12.8047 43.272C12.5111 42.9271 12.0781 42.6335 11.5057 42.3913C10.9406 42.1491 10.247 41.929 9.42507 41.7308L6.97017 41.1143C5.06937 40.652 3.56854 39.9291 2.46768 38.9457C1.36683 37.9622 0.820076 36.6375 0.827415 34.9716C0.820076 33.6065 1.18336 32.4139 1.91726 31.3938C2.6585 30.3737 3.67495 29.5774 4.96662 29.005C6.25829 28.4325 7.72609 28.1463 9.37003 28.1463C11.0433 28.1463 12.5038 28.4325 13.7514 29.005C15.0064 29.5774 15.9825 30.3737 16.6797 31.3938C17.3769 32.4139 17.7365 33.5955 17.7585 34.9386H13.19ZM30.1789 34.0909V37.6136H19.996V34.0909H30.1789ZM22.3078 30.0398H26.9974V45.804C26.9974 46.237 27.0635 46.5746 27.1956 46.8168C27.3277 47.0516 27.5112 47.2167 27.746 47.3121C27.9882 47.4076 28.2671 47.4553 28.5827 47.4553C28.8028 47.4553 29.023 47.4369 29.2432 47.4002C29.4633 47.3562 29.6321 47.3232 29.7496 47.3011L30.4871 50.7908C30.2523 50.8642 29.922 50.9486 29.4964 51.044C29.0707 51.1468 28.5533 51.2092 27.9442 51.2312C26.814 51.2752 25.8232 51.1248 24.9719 50.7798C24.1279 50.4349 23.471 49.8991 23.0013 49.1726C22.5316 48.446 22.3005 47.5286 22.3078 46.4205V30.0398ZM40.692 51.3303C38.982 51.3303 37.5032 50.967 36.2556 50.2404C35.0153 49.5065 34.0576 48.4864 33.3824 47.18C32.7072 45.8664 32.3696 44.3435 32.3696 42.6115C32.3696 40.8648 32.7072 39.3383 33.3824 38.032C34.0576 36.7183 35.0153 35.6982 36.2556 34.9716C37.5032 34.2377 38.982 33.8707 40.692 33.8707C42.402 33.8707 43.8772 34.2377 45.1175 34.9716C46.3651 35.6982 47.3265 36.7183 48.0017 38.032C48.6769 39.3383 49.0145 40.8648 49.0145 42.6115C49.0145 44.3435 48.6769 45.8664 48.0017 47.18C47.3265 48.4864 46.3651 49.5065 45.1175 50.2404C43.8772 50.967 42.402 51.3303 40.692 51.3303ZM40.714 47.6974C41.492 47.6974 42.1415 47.4773 42.6626 47.0369C43.1836 46.5893 43.5763 45.9801 43.8405 45.2095C44.112 44.4389 44.2478 43.5619 44.2478 42.5785C44.2478 41.5951 44.112 40.718 43.8405 39.9474C43.5763 39.1768 43.1836 38.5677 42.6626 38.12C42.1415 37.6723 41.492 37.4485 40.714 37.4485C39.9288 37.4485 39.2683 37.6723 38.7325 38.12C38.2041 38.5677 37.8041 39.1768 37.5326 39.9474C37.2684 40.718 37.1363 41.5951 37.1363 42.5785C37.1363 43.5619 37.2684 44.4389 37.5326 45.2095C37.8041 45.9801 38.2041 46.5893 38.7325 47.0369C39.2683 47.4773 39.9288 47.6974 40.714 47.6974ZM52.0638 51V34.0909H56.6104V37.0412H56.7865C57.0947 35.9917 57.6121 35.1991 58.3387 34.6634C59.0653 34.1203 59.9019 33.8487 60.8486 33.8487C61.0835 33.8487 61.3367 33.8634 61.6082 33.8928C61.8798 33.9221 62.1183 33.9625 62.3238 34.0138V38.1751C62.1036 38.109 61.799 38.0503 61.4101 37.9989C61.0211 37.9476 60.6652 37.9219 60.3422 37.9219C59.6524 37.9219 59.0359 38.0723 58.4928 38.3732C57.9571 38.6668 57.5314 39.0778 57.2158 39.6062C56.9076 40.1346 56.7535 40.7437 56.7535 41.4336V51H52.0638ZM71.6673 51.3303C69.9279 51.3303 68.4308 50.978 67.1758 50.2734C65.9281 49.5616 64.9667 48.5561 64.2915 47.2571C63.6164 45.9508 63.2788 44.4059 63.2788 42.6225C63.2788 40.8832 63.6164 39.3567 64.2915 38.043C64.9667 36.7293 65.9171 35.7055 67.1428 34.9716C68.3757 34.2377 69.8215 33.8707 71.4801 33.8707C72.5956 33.8707 73.6341 34.0505 74.5955 34.4102C75.5643 34.7624 76.4083 35.2945 77.1275 36.0064C77.854 36.7183 78.4192 37.6136 78.8228 38.6925C79.2264 39.764 79.4283 41.0189 79.4283 42.4574V43.7454H65.1502V40.8391H75.0139C75.0139 40.1639 74.8671 39.5658 74.5735 39.0447C74.2799 38.5237 73.8726 38.1164 73.3516 37.8228C72.8378 37.5219 72.2397 37.3714 71.5572 37.3714C70.8453 37.3714 70.2141 37.5366 69.6637 37.8668C69.1206 38.1897 68.695 38.6264 68.3867 39.1768C68.0785 39.7199 67.9207 40.3254 67.9134 40.9933V43.7564C67.9134 44.593 68.0675 45.3159 68.3757 45.9251C68.6913 46.5342 69.1353 47.0039 69.7077 47.3342C70.2802 47.6644 70.959 47.8295 71.7443 47.8295C72.2654 47.8295 72.7424 47.7562 73.1754 47.6094C73.6084 47.4626 73.979 47.2424 74.2873 46.9489C74.5955 46.6553 74.8304 46.2957 74.9918 45.87L79.3292 46.1562C79.109 47.1984 78.6577 48.1084 77.9751 48.8864C77.3 49.657 76.4266 50.2588 75.3551 50.6918C74.291 51.1174 73.0617 51.3303 71.6673 51.3303Z" fill="black"/>
</svg>
